<?xml version="1.0" standalone="no"?>
<!DOCTYPE svg PUBLIC "-//W3C//DTD SVG 20010904//EN"
 "http://www.w3.org/TR/2001/REC-SVG-20010904/DTD/svg10.dtd">
<svg version="1.0" xmlns="http://www.w3.org/2000/svg"
 width="512.000000pt" height="512.000000pt" viewBox="0 0 512.000000 512.000000"
 preserveAspectRatio="xMidYMid meet">
<metadata>
Created by potrace 1.14, written by Peter Selinger 2001-2017
</metadata>
<g transform="translate(0.000000,512.000000) scale(0.100000,-0.100000)"
fill="#000000" stroke="none">
<path d="M2440 4690 c0 -6 -30 -10 -69 -10 -40 0 -71 -4 -73 -11 -2 -5 -22
-13 -46 -16 -23 -3 -42 -10 -42 -14 0 -5 -13 -9 -30 -9 -16 0 -30 -4 -30 -10
0 -5 -9 -10 -19 -10 -11 0 -26 -7 -35 -15 -8 -8 -22 -15 -30 -15 -9 0 -16 -4
-16 -10 0 -5 -7 -10 -15 -10 -15 0 -25 -6 -60 -37 -7 -7 -16 -13 -19 -13 -3 0
-20 -14 -38 -30 -68 -62 -78 -70 -88 -70 -5 0 -10 -8 -10 -19 0 -10 -11 -27
-25 -37 -14 -10 -25 -24 -25 -31 0 -7 -4 -13 -10 -13 -5 0 -10 -6 -10 -13 0
-7 -11 -24 -25 -39 -14 -15 -25 -36 -25 -48 0 -11 -4 -20 -9 -20 -5 0 -12 -11
-15 -25 -4 -14 -11 -25 -16 -25 -6 0 -10 -11 -10 -25 0 -14 -4 -25 -10 -25 -5
0 -10 -11 -10 -25 0 -14 -4 -25 -10 -25 -5 0 -10 -11 -10 -24 0 -14 -7 -31
-15 -40 -9 -9 -15 -33 -15 -60 0 -25 -4 -46 -9 -46 -5 0 -12 -32 -16 -70 -4
-39 -11 -73 -16 -76 -5 -3 -9 -25 -9 -49 0 -51 -5 -54 -102 -59 -32 -1 -61 -6
-65 -9 -3 -4 -28 -7 -55 -7 -26 0 -48 -4 -48 -10 0 -5 -11 -10 -25 -10 -14 0
-42 -7 -62 -15 -19 -8 -44 -15 -54 -15 -11 0 -19 -4 -19 -10 0 -5 -11 -10 -24
-10 -14 0 -31 -7 -40 -15 -8 -8 -24 -15 -35 -15 -12 0 -21 -4 -21 -10 0 -5 -7
-10 -15 -10 -8 0 -25 -11 -39 -25 -14 -14 -34 -25 -46 -25 -11 0 -20 -7 -20
-15 0 -8 -7 -15 -15 -15 -8 0 -15 -4 -15 -10 0 -5 -9 -10 -20 -10 -11 0 -20
-5 -20 -11 0 -11 -25 -39 -35 -39 -10 0 -35 -28 -35 -39 0 -6 -5 -11 -11 -11
-13 0 -39 -25 -39 -39 0 -5 -11 -21 -25 -35 -14 -14 -25 -30 -25 -36 0 -5 -4
-10 -10 -10 -5 0 -10 -11 -10 -25 0 -16 -6 -25 -15 -25 -9 0 -15 -9 -15 -25 0
-14 -4 -25 -10 -25 -5 0 -10 -11 -10 -25 0 -14 -4 -25 -10 -25 -5 0 -10 -11
-10 -24 0 -14 -7 -31 -15 -40 -9 -9 -15 -33 -15 -60 0 -25 -4 -46 -10 -46 -5
0 -10 -25 -10 -55 0 -31 -7 -72 -15 -92 -20 -47 -20 -211 0 -277 8 -27 15 -73
15 -103 0 -29 5 -53 10 -53 6 0 10 -18 10 -40 0 -22 5 -40 10 -40 6 0 10 -10
10 -23 0 -13 7 -32 15 -43 8 -10 15 -27 15 -36 0 -10 5 -18 10 -18 6 0 10 -11
10 -25 0 -14 4 -25 10 -25 5 0 12 -11 16 -25 3 -14 10 -25 15 -25 5 0 9 -5 9
-11 0 -6 6 -17 13 -24 27 -31 37 -44 37 -50 0 -10 28 -35 39 -35 6 0 11 -5 11
-11 0 -13 25 -39 38 -39 5 0 15 -11 22 -25 7 -14 18 -25 24 -25 6 0 23 -11 38
-25 15 -14 32 -25 38 -25 5 0 10 -4 10 -10 0 -5 9 -10 20 -10 11 0 20 -7 20
-15 0 -9 9 -15 25 -15 14 0 25 -4 25 -8 0 -4 22 -16 50 -27 27 -11 50 -22 50
-26 0 -4 12 -9 28 -12 60 -12 127 -31 132 -38 3 -3 23 -9 45 -12 150 -22 195
-31 195 -39 0 -4 11 -8 25 -8 24 0 25 -3 25 -60 0 -33 4 -60 9 -60 5 0 12 -34
16 -75 4 -41 11 -75 16 -75 5 0 9 -22 9 -50 0 -27 4 -50 10 -50 5 0 12 -16 16
-35 3 -19 10 -35 15 -35 5 0 9 -11 9 -25 0 -14 5 -25 10 -25 6 0 10 -11 10
-25 0 -14 4 -25 10 -25 5 0 12 -11 16 -25 3 -14 10 -25 15 -25 5 0 9 -10 9
-23 0 -12 11 -31 25 -41 14 -10 25 -25 25 -32 0 -16 156 -174 171 -174 5 0 22
-11 37 -25 15 -14 32 -25 39 -25 7 0 13 -4 13 -10 0 -5 6 -10 14 -10 18 0 76
-32 76 -42 0 -5 14 -8 30 -8 17 0 30 -4 30 -9 0 -5 16 -12 35 -15 19 -4 35
-11 35 -16 0 -6 22 -10 49 -10 28 0 51 -5 53 -11 5 -16 471 -15 476 0 2 6 26
11 54 11 31 0 55 6 64 15 9 8 26 15 40 15 13 0 24 5 24 10 0 6 11 10 25 10 14
0 25 4 25 9 0 5 11 12 25 15 14 4 25 11 25 16 0 6 9 10 20 10 12 0 33 11 48
25 15 14 31 25 36 25 13 0 206 197 206 210 0 5 4 10 10 10 5 0 12 11 16 25 3
14 9 25 13 25 3 0 13 15 20 32 8 18 21 39 28 46 7 7 13 20 13 28 0 8 5 14 10
14 6 0 10 7 10 16 0 22 33 118 43 122 4 2 7 13 7 25 0 11 4 34 9 51 22 70 41
177 41 225 0 39 4 51 15 51 8 0 15 4 15 9 0 7 106 23 158 23 12 0 22 4 22 9 0
5 23 9 50 9 28 0 50 4 50 9 0 5 23 12 50 16 28 4 50 11 50 16 0 5 14 9 30 9
17 0 30 5 30 10 0 6 9 10 19 10 11 0 26 7 35 15 8 8 22 15 30 15 9 0 16 5 16
10 0 6 11 10 25 10 16 0 25 6 25 15 0 8 9 15 21 15 11 0 35 16 53 35 19 19 40
35 49 35 9 0 19 9 22 20 3 11 11 20 16 20 5 0 9 6 9 14 0 7 9 16 21 19 11 3
23 15 26 26 3 12 9 21 14 21 5 0 9 5 9 11 0 7 11 22 25 35 14 13 25 30 25 39
0 8 3 15 8 15 10 0 42 58 42 76 0 8 5 14 10 14 6 0 10 10 10 23 0 12 7 31 15
41 8 11 15 30 15 43 0 13 5 23 10 23 6 0 10 23 10 50 0 28 4 50 8 50 5 0 14
56 22 124 10 103 10 150 -1 270 -7 81 -17 146 -21 146 -4 0 -8 20 -8 45 0 25
-4 45 -9 45 -5 0 -11 18 -15 40 -3 22 -11 40 -16 40 -6 0 -10 11 -10 25 0 14
-4 25 -10 25 -5 0 -10 6 -10 14 0 18 -32 76 -42 76 -5 0 -8 7 -8 15 0 8 -3 15
-8 15 -4 0 -16 16 -26 35 -11 19 -23 35 -28 35 -4 0 -8 7 -8 15 0 8 -5 15 -11
15 -11 0 -39 25 -39 35 0 9 -27 35 -36 35 -4 0 -17 11 -30 25 -13 14 -28 25
-35 25 -6 0 -22 11 -35 25 -13 14 -30 25 -39 25 -8 0 -15 5 -15 10 0 6 -7 10
-15 10 -8 0 -15 4 -15 10 0 5 -11 12 -25 16 -14 3 -25 9 -25 13 0 3 -27 15
-60 25 -33 11 -60 23 -60 28 0 4 -10 8 -22 8 -28 0 -132 32 -136 42 -2 5 -30
8 -63 8 -32 0 -59 4 -59 9 0 4 -17 8 -39 8 -51 0 -61 8 -61 49 0 19 -4 34 -10
34 -5 0 -10 24 -10 53 0 28 -5 70 -11 92 -6 22 -13 57 -16 78 -3 20 -9 40 -14
43 -5 3 -9 21 -9 40 0 19 -4 34 -8 34 -4 0 -16 23 -27 50 -11 28 -23 50 -27
50 -4 0 -8 11 -8 25 0 14 -4 25 -10 25 -5 0 -12 11 -16 25 -3 14 -10 25 -15
25 -5 0 -9 7 -9 15 0 8 -8 23 -17 33 -10 10 -27 31 -38 46 -11 16 -26 34 -32
41 -7 8 -13 17 -13 20 0 12 -64 65 -77 65 -7 0 -13 6 -13 13 0 8 -11 20 -25
27 -14 7 -25 17 -25 22 0 4 -9 8 -20 8 -11 0 -23 7 -26 15 -4 8 -12 15 -20 15
-8 0 -14 5 -14 10 0 6 -9 10 -20 10 -11 0 -20 4 -20 9 0 5 -16 12 -35 15 -19
4 -35 11 -35 16 0 6 -16 10 -35 10 -19 0 -35 4 -35 9 0 5 -18 11 -40 15 -22 3
-40 11 -40 16 0 6 -31 10 -70 10 -40 0 -70 4 -70 10 0 6 -55 10 -145 10 -90 0
-145 -4 -145 -10z m340 -120 c0 -5 21 -10 48 -10 26 -1 58 -7 72 -15 14 -8 35
-14 48 -15 12 0 22 -4 22 -10 0 -5 9 -10 20 -10 22 0 93 -31 98 -42 2 -5 8 -8
13 -8 9 0 21 -8 54 -37 7 -7 16 -13 19 -13 8 0 53 -39 85 -73 63 -67 71 -77
71 -87 0 -5 4 -10 10 -10 5 0 12 -11 16 -25 3 -14 10 -25 15 -25 5 0 9 -7 9
-15 0 -8 5 -15 10 -15 6 0 10 -8 10 -17 0 -10 7 -27 15 -37 8 -11 15 -28 15
-38 0 -10 5 -18 10 -18 6 0 10 -13 10 -30 0 -16 4 -30 10 -30 5 0 12 -22 16
-50 4 -27 10 -50 15 -50 5 0 9 -31 9 -70 0 -40 4 -70 10 -70 6 0 10 -27 10
-60 l0 -60 -48 0 c-43 0 -50 3 -60 25 -7 14 -12 46 -12 70 0 25 -4 45 -10 45
-5 0 -10 11 -10 24 0 14 -4 27 -9 31 -6 3 -13 26 -17 50 -3 25 -10 45 -15 45
-5 0 -9 11 -9 25 0 14 -4 25 -8 25 -4 0 -16 23 -27 50 -11 28 -23 50 -27 50
-4 0 -8 6 -8 13 0 7 -11 24 -25 39 -14 15 -25 30 -25 33 0 11 -149 155 -160
155 -5 0 -10 4 -10 10 0 5 -11 12 -25 16 -14 3 -25 10 -25 15 0 5 -9 9 -20 9
-11 0 -20 5 -20 10 0 6 -11 10 -25 10 -14 0 -28 7 -31 15 -4 10 -20 15 -50 15
-24 0 -44 4 -44 9 0 4 -47 13 -104 20 -109 12 -338 -1 -344 -20 -2 -5 -24 -9
-49 -9 -24 0 -51 -6 -58 -14 -8 -7 -34 -20 -59 -27 -26 -7 -46 -16 -46 -20 0
-4 -8 -9 -17 -13 -23 -7 -50 -25 -82 -53 -14 -13 -30 -23 -34 -23 -12 0 -37
-27 -37 -39 0 -6 -6 -11 -13 -11 -7 0 -21 -16 -31 -35 -11 -19 -23 -35 -28
-35 -4 0 -8 -7 -8 -15 0 -8 -4 -15 -10 -15 -5 0 -10 -9 -10 -20 0 -11 -4 -20
-9 -20 -5 0 -12 -11 -15 -25 -4 -14 -11 -25 -16 -25 -6 0 -10 -11 -10 -25 0
-14 -3 -25 -8 -25 -10 0 -33 -84 -39 -147 -3 -29 -9 -53 -14 -53 -5 0 -9 -237
-9 -575 l0 -575 -50 0 -50 0 0 555 c0 326 4 555 9 555 5 0 11 24 14 53 7 68
29 157 39 157 4 0 8 13 8 29 0 17 4 32 9 36 5 3 12 19 16 35 4 17 11 30 16 30
5 0 9 11 9 25 0 14 3 25 8 25 4 0 16 16 26 35 11 19 23 35 28 35 4 0 8 7 8 15
0 8 11 25 25 39 14 14 25 28 25 31 0 6 11 20 38 50 6 7 12 18 12 24 0 6 6 11
13 11 6 0 32 18 56 40 24 22 50 40 57 40 8 0 14 5 14 10 0 6 7 10 15 10 8 0
15 4 15 10 0 5 11 12 25 16 14 3 25 10 25 15 0 5 14 9 30 9 17 0 30 4 30 9 0
5 18 11 40 15 22 3 40 11 40 16 0 6 23 10 50 10 28 0 50 5 50 10 0 6 70 10
190 10 120 0 190 -4 190 -10z m-25 -239 c3 -6 26 -13 50 -17 25 -3 45 -10 45
-15 0 -5 10 -9 23 -9 13 0 32 -7 43 -15 10 -8 27 -15 37 -15 9 0 17 -4 17 -10
0 -5 5 -10 10 -10 10 0 22 -8 55 -37 7 -7 16 -13 20 -13 9 0 35 -27 35 -36 0
-4 11 -17 25 -30 14 -13 25 -30 25 -39 0 -8 4 -15 8 -15 5 0 17 -16 28 -35 10
-19 22 -35 26 -35 5 0 8 -11 8 -25 0 -14 4 -25 9 -25 5 0 12 -13 16 -30 4 -16
11 -32 16 -35 5 -4 9 -19 9 -36 0 -16 5 -29 10 -29 6 0 10 -12 10 -27 0 -16 7
-50 15 -77 24 -79 17 -86 -75 -86 l-78 0 -6 58 c-3 31 -7 66 -9 77 -2 11 -7
39 -12 63 -4 23 -12 45 -16 48 -5 3 -9 18 -9 35 0 16 -4 29 -9 29 -5 0 -12 11
-15 25 -4 14 -11 25 -16 25 -6 0 -10 4 -10 10 0 19 -111 140 -129 140 -6 0
-11 4 -11 9 0 5 -11 12 -25 15 -14 4 -25 11 -25 16 0 6 -16 10 -35 10 -19 0
-35 4 -35 8 0 15 -113 35 -195 35 -85 -1 -215 -22 -215 -35 0 -4 -9 -8 -21 -8
-11 0 -27 -6 -34 -12 -30 -27 -44 -38 -50 -38 -6 0 -20 -11 -50 -37 -7 -7 -18
-13 -23 -13 -5 0 -17 -16 -28 -35 -10 -19 -22 -35 -26 -35 -5 0 -8 -7 -8 -15
0 -8 -4 -15 -10 -15 -5 0 -10 -9 -10 -20 0 -11 -4 -20 -9 -20 -5 0 -12 -13
-16 -30 -4 -16 -11 -30 -16 -30 -5 0 -9 -20 -9 -44 0 -27 -5 -46 -12 -48 -10
-4 -14 -133 -16 -591 l-3 -587 -85 0 -86 0 4 597 c2 466 6 597 16 601 6 2 12
18 12 35 0 36 29 117 41 117 5 0 9 11 9 25 0 14 5 25 10 25 6 0 10 7 10 15 0
8 11 25 25 39 14 14 25 28 25 31 0 10 78 85 89 85 6 0 11 5 11 11 0 17 27 39
49 39 12 0 21 4 21 9 0 5 11 12 25 15 14 4 25 11 25 16 0 6 16 10 35 10 19 0
35 4 35 9 0 5 20 12 45 15 24 4 47 11 50 17 4 5 82 9 180 9 98 0 176 -4 180
-9z m-48 -226 c19 -8 48 -15 64 -15 16 0 29 -4 29 -10 0 -5 11 -10 25 -10 16
0 25 -6 25 -15 0 -8 5 -15 10 -15 14 0 60 -46 60 -60 0 -5 7 -10 15 -10 8 0
15 -7 15 -15 0 -8 5 -15 10 -15 6 0 10 -9 10 -21 0 -11 7 -27 15 -35 8 -9 15
-26 15 -40 0 -13 5 -24 10 -24 6 0 10 -30 10 -70 0 -40 4 -70 10 -70 15 0 12
-19 -4 -36 -19 -19 -132 -19 -151 0 -8 7 -11 23 -8 35 3 12 1 21 -6 21 -6 0
-11 19 -11 45 0 25 -4 45 -10 45 -5 0 -10 9 -10 19 0 11 -7 26 -15 35 -8 8
-15 19 -15 25 0 6 -4 11 -9 11 -5 0 -13 9 -16 20 -3 11 -15 20 -25 20 -10 0
-20 3 -22 8 -16 37 -193 58 -224 27 -9 -8 -24 -15 -35 -15 -10 0 -19 -4 -19
-10 0 -5 -7 -10 -15 -10 -8 0 -15 -5 -15 -11 0 -6 -6 -17 -12 -24 -30 -33 -38
-45 -38 -55 0 -5 -4 -10 -9 -10 -5 0 -11 -12 -14 -27 -3 -16 -10 -46 -16 -68
-7 -26 -11 -231 -11 -572 l0 -533 -95 0 -95 0 0 524 c0 339 4 527 10 531 6 3
10 29 10 56 0 27 7 66 15 86 8 19 15 44 15 54 0 11 4 19 9 19 5 0 11 10 15 23
3 12 14 32 26 44 11 12 20 25 20 28 0 9 27 35 36 35 4 0 17 11 30 25 13 14 30
25 39 25 8 0 15 5 15 10 0 6 15 10 33 10 18 0 42 7 53 15 27 20 201 20 251 0z
m-33 -270 c8 -8 19 -15 25 -15 6 0 11 -7 11 -15 0 -8 4 -15 8 -15 8 0 42 -116
42 -143 0 -12 -19 -16 -93 -19 -71 -2 -98 -7 -110 -20 -15 -15 -17 -64 -19
-500 l-3 -483 -57 -3 -58 -3 0 516 c0 337 3 515 10 515 6 0 10 23 10 50 0 28
4 50 10 50 5 0 12 11 16 25 3 14 10 25 15 25 5 0 9 5 9 11 0 25 36 38 102 39
46 0 71 -5 82 -15z m-1164 -380 c0 -52 -1 -55 -25 -55 -14 0 -25 -4 -25 -10 0
-5 -22 -10 -50 -10 -27 0 -50 -4 -50 -9 0 -6 -20 -13 -45 -17 -25 -3 -45 -10
-45 -15 0 -5 -16 -9 -35 -9 -19 0 -35 -4 -35 -9 0 -5 -11 -12 -25 -15 -14 -4
-25 -11 -25 -16 0 -6 -11 -10 -25 -10 -14 0 -25 -4 -25 -10 0 -5 -5 -10 -10
-10 -10 0 -22 -8 -55 -37 -7 -7 -16 -13 -20 -13 -6 0 -19 -10 -50 -37 -7 -7
-18 -13 -24 -13 -6 0 -11 -5 -11 -11 0 -6 -16 -26 -35 -45 -19 -18 -35 -39
-35 -45 0 -7 -11 -22 -25 -35 -14 -13 -25 -30 -25 -39 0 -8 -4 -15 -8 -15 -5
0 -17 -25 -27 -55 -11 -30 -23 -55 -27 -55 -4 0 -8 -20 -8 -45 0 -25 -4 -45
-9 -45 -9 0 -24 -143 -24 -230 0 -87 15 -230 24 -230 5 0 9 -18 9 -40 0 -22 5
-40 10 -40 6 0 10 -11 10 -24 0 -14 7 -31 15 -40 8 -8 15 -24 15 -35 0 -12 4
-21 9 -21 5 0 12 -11 15 -25 4 -14 11 -25 16 -25 6 0 10 -7 10 -15 0 -8 5 -15
10 -15 6 0 10 -7 10 -15 0 -9 16 -31 35 -49 19 -19 35 -39 35 -45 0 -6 5 -11
11 -11 14 0 39 -25 39 -39 0 -6 9 -11 20 -11 11 0 20 -4 20 -10 0 -5 7 -10 15
-10 8 0 15 -4 15 -10 0 -5 11 -12 25 -16 14 -3 25 -10 25 -15 0 -5 9 -9 20 -9
19 0 91 -29 100 -41 3 -4 28 -9 55 -12 28 -3 82 -10 120 -16 39 -6 293 -10
572 -10 391 -1 502 -4 506 -13 4 -10 8 -9 17 2 9 11 13 12 17 3 2 -7 11 -13
19 -13 8 0 14 -1 14 -2 0 -2 -6 -23 -14 -48 l-13 -45 -504 0 c-277 1 -524 4
-549 7 -25 4 -73 10 -107 14 -35 3 -63 10 -63 15 0 5 -16 9 -35 9 -19 0 -35 4
-35 10 0 5 -16 12 -35 16 -19 3 -35 10 -35 15 0 5 -11 9 -25 9 -14 0 -25 5
-25 10 0 6 -11 10 -25 10 -14 0 -25 4 -25 10 0 5 -11 12 -25 16 -14 3 -25 10
-25 15 0 5 -9 9 -20 9 -11 0 -23 7 -26 15 -4 8 -15 15 -25 15 -10 0 -19 5 -19
10 0 6 -7 10 -15 10 -8 0 -15 5 -15 11 0 11 -25 39 -35 39 -10 0 -35 28 -35
39 0 6 -5 11 -11 11 -12 0 -39 25 -39 36 0 3 -8 14 -19 23 -10 9 -21 26 -25
39 -4 12 -12 22 -17 22 -5 0 -9 7 -9 15 0 8 -4 15 -10 15 -5 0 -10 8 -10 18 0
9 -7 26 -15 36 -8 11 -15 30 -15 43 0 13 -4 23 -10 23 -5 0 -10 16 -10 35 0
19 -4 35 -10 35 -5 0 -12 27 -16 60 -4 33 -11 63 -15 66 -12 7 -12 344 0 344
4 0 11 28 15 63 3 34 11 64 16 65 6 2 10 24 10 48 0 24 5 44 10 44 6 0 10 11
10 25 0 14 4 25 10 25 5 0 12 11 16 25 3 14 10 25 15 25 5 0 9 9 9 20 0 19 6
29 38 65 6 7 12 18 12 24 0 6 5 11 10 11 6 0 10 5 10 11 0 14 25 39 39 39 6 0
11 5 11 11 0 11 25 39 35 39 3 0 21 16 39 35 19 19 39 35 45 35 7 0 22 11 35
25 13 14 33 25 44 25 11 0 27 7 36 15 8 8 24 15 35 15 12 0 21 5 21 10 0 6 11
10 25 10 14 0 25 4 25 9 0 5 20 12 45 15 24 4 47 11 50 17 4 5 26 9 51 9 24 0
44 4 44 9 0 9 25 13 128 18 l42 3 0 -55z m2178 35 c5 -14 29 -12 36 3 5 10 7
10 12 0 4 -8 27 -13 65 -13 32 0 59 -4 59 -9 0 -6 20 -13 45 -17 25 -3 45 -10
45 -15 0 -5 14 -9 30 -9 17 0 30 -4 30 -10 0 -5 9 -10 19 -10 11 0 26 -7 35
-15 8 -8 24 -15 35 -15 12 0 21 -4 21 -9 0 -5 11 -12 25 -15 14 -4 25 -11 25
-16 0 -6 5 -10 10 -10 10 0 22 -8 55 -37 7 -7 16 -13 20 -13 8 0 155 -147 155
-155 0 -6 11 -20 38 -50 6 -7 12 -18 12 -24 0 -6 5 -11 10 -11 6 0 10 -9 10
-21 0 -11 7 -27 15 -35 8 -9 15 -26 15 -40 0 -13 5 -24 10 -24 6 0 10 -18 10
-39 0 -22 5 -41 12 -43 6 -2 13 -32 16 -69 2 -35 8 -68 13 -73 11 -13 12 -316
0 -316 -4 0 -11 -33 -14 -72 -4 -40 -11 -74 -17 -76 -5 -2 -10 -19 -10 -38 0
-19 -4 -34 -10 -34 -5 0 -10 -9 -10 -19 0 -21 -30 -84 -42 -89 -5 -2 -8 -12
-8 -23 0 -10 -4 -19 -9 -19 -5 0 -12 -11 -15 -25 -4 -14 -11 -25 -16 -25 -6 0
-10 -5 -10 -11 0 -14 -25 -39 -39 -39 -6 0 -11 -5 -11 -10 0 -14 -46 -60 -60
-60 -5 0 -10 -5 -10 -11 0 -15 -22 -35 -48 -43 -12 -4 -22 -12 -22 -17 0 -5
-7 -9 -15 -9 -8 0 -15 -4 -15 -10 0 -5 -9 -10 -20 -10 -11 0 -20 -4 -20 -10 0
-5 -11 -12 -25 -16 -14 -3 -25 -10 -25 -15 0 -5 -11 -9 -25 -9 -14 0 -25 -4
-25 -9 0 -5 -16 -12 -35 -15 -19 -4 -35 -11 -35 -16 0 -6 -18 -10 -40 -10 -22
0 -40 -4 -40 -9 0 -8 -92 -25 -142 -26 -9 0 -20 -3 -24 -7 -4 -5 -27 -8 -51
-8 l-43 0 0 50 c0 46 2 50 24 50 13 0 26 5 28 10 3 10 63 24 151 37 20 3 37 9
37 14 0 4 16 11 35 15 19 3 35 10 35 15 0 5 11 9 25 9 14 0 25 4 25 9 0 5 11
12 25 15 14 4 25 11 25 16 0 6 9 10 20 10 11 0 20 5 20 10 0 6 7 10 15 10 8 0
15 4 15 9 0 5 9 13 21 16 19 7 149 127 149 140 0 6 10 19 38 50 6 7 12 18 12
24 0 6 5 11 10 11 6 0 10 9 10 21 0 11 7 27 15 35 8 9 15 26 15 40 0 13 5 24
10 24 6 0 10 16 10 35 0 19 4 35 8 35 22 0 42 247 28 350 -3 25 -9 69 -12 98
-4 28 -10 52 -15 52 -5 0 -9 20 -9 44 0 24 -3 46 -7 48 -12 5 -43 76 -43 98 0
11 -4 20 -10 20 -5 0 -10 5 -10 11 0 6 -6 17 -12 24 -28 31 -38 44 -38 50 0 9
-129 135 -138 135 -4 0 -19 11 -34 25 -15 14 -36 25 -48 25 -11 0 -20 7 -20
15 0 9 -9 15 -25 15 -14 0 -25 5 -25 10 0 6 -7 10 -16 10 -20 0 -117 33 -124
41 -3 4 -48 10 -100 13 -52 3 -108 7 -125 9 -16 2 -247 4 -512 5 l-483 2 0 50
0 50 228 2 c385 5 817 -2 820 -12z m-2178 -271 c0 -33 4 -59 10 -59 6 0 10 -4
10 -9 0 -15 -85 -41 -138 -41 -29 0 -52 -4 -52 -9 0 -5 -20 -12 -45 -15 -24
-4 -47 -11 -50 -17 -4 -5 -15 -9 -26 -9 -10 0 -19 -4 -19 -9 0 -5 -11 -12 -25
-15 -14 -4 -25 -11 -25 -16 0 -6 -5 -10 -10 -10 -11 0 -31 -15 -53 -38 -7 -7
-22 -24 -34 -37 -13 -13 -23 -29 -23 -35 0 -5 -4 -10 -10 -10 -5 0 -12 -11
-16 -25 -3 -14 -10 -25 -15 -25 -5 0 -9 -11 -9 -25 0 -14 -4 -25 -9 -25 -5 0
-12 -20 -15 -45 -4 -24 -11 -47 -17 -50 -5 -4 -9 -63 -9 -132 0 -93 4 -138 18
-177 9 -28 20 -52 25 -54 4 -2 7 -15 7 -28 0 -13 4 -24 9 -24 5 0 12 -11 15
-25 4 -14 11 -25 16 -25 6 0 10 -5 10 -10 0 -12 95 -110 105 -110 4 0 13 -6
20 -12 36 -32 46 -38 65 -38 11 0 20 -4 20 -10 0 -5 16 -12 35 -16 19 -3 35
-10 35 -15 0 -5 23 -9 50 -9 28 0 50 -4 50 -10 0 -7 188 -10 543 -10 298 0
552 -3 565 -6 20 -6 22 -12 22 -75 0 -39 -4 -69 -10 -69 -5 0 -10 -7 -10 -15
0 -22 -1037 -22 -1123 0 -32 8 -69 15 -82 15 -14 0 -25 5 -25 10 0 6 -16 10
-35 10 -19 0 -35 4 -35 9 0 5 -11 12 -25 15 -14 4 -25 11 -25 16 0 6 -9 10
-20 10 -19 0 -29 6 -65 38 -7 6 -17 12 -20 12 -12 0 -85 77 -85 89 0 6 -5 11
-11 11 -17 0 -39 27 -39 49 0 12 -4 21 -9 21 -5 0 -12 11 -15 25 -4 14 -11 25
-16 25 -6 0 -10 11 -10 25 0 14 -4 25 -10 25 -5 0 -10 15 -10 34 0 19 -4 36
-10 38 -5 2 -13 31 -16 66 -4 34 -11 62 -15 62 -12 0 -12 207 0 214 4 3 11 33
15 66 4 33 11 60 16 60 6 0 10 18 10 40 0 22 4 40 9 40 5 0 11 12 14 28 3 15
15 37 26 49 12 12 21 30 21 39 0 20 154 174 175 174 8 0 15 5 15 10 0 6 7 10
15 10 8 0 15 4 15 10 0 5 11 12 25 16 14 3 25 10 25 15 0 5 14 9 30 9 17 0 30
3 30 8 0 10 92 42 124 42 14 0 26 4 26 9 0 9 76 20 93 13 4 -2 7 -30 7 -63z
m2298 54 c2 -8 21 -13 48 -13 24 0 44 -4 44 -9 0 -5 14 -12 30 -16 17 -4 30
-11 30 -16 0 -5 9 -9 19 -9 11 0 23 -4 26 -10 3 -5 15 -10 26 -10 10 0 19 -7
19 -15 0 -9 9 -15 21 -15 22 0 49 -22 49 -39 0 -6 5 -11 11 -11 14 0 39 -25
39 -39 0 -6 5 -11 11 -11 14 0 38 -30 39 -48 0 -7 9 -23 21 -35 11 -12 23 -34
26 -49 3 -16 9 -28 14 -28 5 0 9 -13 9 -30 0 -16 4 -30 9 -30 33 0 52 -345 26
-466 -10 -41 -21 -74 -26 -74 -5 0 -9 -16 -9 -35 0 -19 -4 -35 -10 -35 -5 0
-10 -11 -10 -25 0 -14 -4 -25 -10 -25 -5 0 -12 -11 -16 -25 -3 -14 -9 -25 -13
-25 -4 0 -14 -11 -21 -25 -7 -14 -19 -25 -27 -25 -7 0 -13 -5 -13 -10 0 -6
-11 -22 -25 -35 -13 -14 -29 -25 -35 -25 -5 0 -10 -7 -10 -15 0 -8 -7 -15 -15
-15 -8 0 -15 -4 -15 -10 0 -5 -9 -10 -20 -10 -11 0 -20 -4 -20 -10 0 -13 -54
-40 -80 -40 -11 0 -20 -4 -20 -10 0 -5 -11 -12 -25 -16 -14 -3 -25 -10 -25
-15 0 -5 -16 -9 -35 -9 -19 0 -35 -4 -35 -10 0 -5 -19 -10 -43 -10 -24 0 -52
-7 -63 -15 -10 -8 -29 -15 -41 -15 -22 0 -23 3 -23 84 0 94 1 96 75 96 24 0
47 5 50 10 3 6 31 10 61 10 30 0 54 4 54 8 0 4 23 16 50 27 28 11 50 23 50 27
0 4 6 8 13 8 7 0 24 11 39 25 15 14 32 25 38 25 5 0 10 3 10 8 0 4 14 23 30
42 17 19 33 43 36 53 3 9 10 17 15 17 5 0 9 11 9 24 0 13 3 26 8 28 17 7 42
82 42 128 0 29 5 51 13 54 10 5 10 7 0 12 -8 3 -13 25 -13 54 0 29 5 51 13 54
10 5 10 7 0 12 -7 3 -13 24 -13 46 0 41 -29 140 -42 146 -5 2 -8 13 -8 23 0
11 -11 30 -25 43 -14 13 -25 26 -25 30 0 11 -98 106 -110 106 -5 0 -10 4 -10
10 0 5 -11 12 -25 16 -14 3 -25 10 -25 15 0 5 -11 9 -25 9 -14 0 -25 4 -25 9
0 6 -20 13 -45 17 -25 3 -45 10 -45 14 0 15 -150 21 -655 26 -275 2 -506 6
-512 9 -9 3 -13 27 -13 74 0 58 3 70 18 75 9 2 273 4 586 3 445 -2 570 -5 574
-14z m-2298 -348 l0 -85 -40 0 c-22 0 -40 -4 -40 -10 0 -5 -15 -10 -34 -10
-19 0 -41 -7 -50 -15 -8 -8 -22 -15 -31 -15 -9 0 -28 -11 -43 -25 -15 -14 -32
-25 -39 -25 -7 0 -13 -9 -13 -19 0 -11 -3 -21 -7 -23 -23 -10 -43 -74 -43
-138 0 -64 20 -128 43 -138 4 -2 7 -12 7 -23 0 -10 6 -19 14 -19 8 0 16 -7 20
-15 3 -8 12 -15 21 -15 8 0 15 -4 15 -8 0 -4 23 -16 50 -27 28 -11 50 -23 50
-27 0 -4 253 -9 563 -10 l562 -3 0 -85 0 -85 -569 0 c-447 0 -570 3 -574 13
-2 7 -20 12 -43 12 -21 0 -39 4 -39 10 0 5 -16 12 -35 16 -19 3 -35 10 -35 15
0 5 -7 9 -15 9 -8 0 -15 4 -15 9 0 5 -9 12 -19 16 -11 3 -23 15 -26 25 -3 10
-15 22 -26 25 -10 4 -19 15 -19 26 0 10 -4 19 -9 19 -5 0 -12 11 -15 25 -4 14
-11 25 -16 25 -6 0 -10 23 -10 50 0 28 -4 50 -10 50 -6 0 -10 32 -10 75 0 43
4 75 10 75 6 0 10 30 10 70 0 39 4 70 9 70 5 0 12 14 16 30 4 17 11 30 16 30
5 0 9 7 9 16 0 20 86 104 106 104 8 0 14 5 14 10 0 6 9 10 20 10 11 0 20 4 20
9 0 5 14 12 30 16 17 4 30 11 30 16 0 5 27 9 60 9 33 0 60 4 60 10 0 6 16 10
35 10 l35 0 0 -85z m2200 75 c0 -6 27 -10 60 -10 33 0 60 -4 60 -10 0 -5 16
-12 35 -16 19 -3 35 -10 35 -15 0 -5 7 -9 15 -9 8 0 15 -4 15 -9 0 -5 11 -12
25 -15 14 -4 25 -11 25 -16 0 -6 5 -10 11 -10 12 0 39 -25 39 -36 0 -3 8 -14
19 -23 10 -9 21 -26 25 -38 4 -13 12 -23 17 -23 5 0 9 -16 9 -35 0 -19 5 -35
10 -35 6 0 10 -55 10 -145 0 -90 -4 -145 -10 -145 -5 0 -10 -18 -10 -40 0 -22
-4 -40 -9 -40 -5 0 -12 -11 -15 -25 -4 -14 -11 -25 -16 -25 -6 0 -10 -5 -10
-10 0 -17 -77 -90 -95 -90 -15 0 -25 -6 -60 -37 -7 -7 -27 -13 -43 -13 -17 0
-32 -5 -34 -11 -2 -7 -35 -12 -88 -13 l-85 -1 -3 72 c-3 70 -2 73 23 79 14 3
25 10 25 15 0 5 23 9 50 9 28 0 50 4 50 9 0 5 12 11 28 14 15 3 37 15 49 26
12 12 27 21 33 21 5 0 10 6 10 13 0 7 9 19 20 27 11 8 20 24 20 35 0 12 7 30
15 41 16 21 21 154 6 154 -5 0 -12 11 -15 25 -4 14 -11 25 -16 25 -6 0 -10 11
-10 25 0 14 -5 25 -10 25 -6 0 -22 11 -36 25 -14 14 -31 25 -39 25 -8 0 -15 5
-15 10 0 6 -10 10 -22 10 -13 1 -34 7 -48 15 -14 8 -46 14 -72 15 -27 0 -48 5
-48 10 0 7 -173 10 -498 10 l-498 0 2 68 c3 114 -59 102 540 102 343 0 524 -3
524 -10z m-2200 -365 c0 -50 4 -85 10 -85 6 0 10 -11 10 -25 l0 -25 495 0 495
0 0 -44 c0 -83 47 -76 -511 -76 -326 0 -499 3 -499 10 0 6 -22 10 -50 10 -27
0 -50 5 -50 10 0 6 -11 10 -24 10 -14 0 -31 7 -40 15 -8 8 -18 15 -22 15 -20
0 -33 41 -34 101 0 68 16 119 38 119 6 0 12 4 12 10 0 5 11 12 25 16 14 3 25
10 25 15 0 5 27 9 60 9 l60 0 0 -85z m2200 76 c0 -5 18 -11 40 -15 22 -3 40
-11 40 -16 0 -6 5 -10 11 -10 14 0 39 -25 39 -39 0 -6 5 -11 10 -11 6 0 10
-32 10 -75 0 -66 -3 -77 -25 -97 -45 -43 -54 -48 -84 -48 -16 0 -31 -4 -33 -9
-1 -5 -19 -11 -38 -13 l-35 -3 -3 107 c-3 105 -3 108 -27 114 -14 3 -25 10
-25 15 0 5 -201 9 -469 9 l-469 0 -4 32 c-3 18 -3 40 0 50 4 17 32 18 533 18
294 0 529 -4 529 -9z m-971 -225 c9 -10 10 -144 7 -507 -4 -490 -9 -609 -27
-609 -5 0 -9 -9 -9 -20 0 -21 -2 -24 -45 -72 -22 -25 -31 -28 -90 -28 -37 0
-65 4 -65 10 0 6 -9 10 -20 10 -11 0 -20 7 -20 15 0 8 -7 15 -15 15 -9 0 -15
9 -15 25 0 14 -4 25 -10 25 -5 0 -10 20 -10 44 0 25 -4 48 -10 51 -27 17 -2
25 81 25 64 0 94 4 105 14 7 8 19 16 26 18 10 4 14 111 16 501 l3 497 43 0
c25 0 48 -6 55 -14z m281 -570 c0 -379 -4 -587 -10 -591 -5 -3 -10 -15 -10
-25 0 -22 -31 -93 -42 -98 -5 -2 -8 -13 -8 -24 0 -30 -115 -148 -145 -148 -9
0 -23 -7 -31 -15 -10 -9 -34 -15 -65 -15 -27 0 -49 -4 -49 -10 0 -6 -30 -10
-70 -10 -40 0 -70 4 -70 10 0 6 -26 10 -59 10 -40 0 -63 5 -71 15 -7 8 -23 15
-36 15 -13 0 -24 5 -24 10 0 6 -5 10 -11 10 -13 0 -89 76 -89 89 0 5 -7 11
-15 15 -8 3 -15 15 -15 26 0 11 -4 20 -10 20 -5 0 -10 10 -10 23 0 13 -7 32
-15 43 -8 10 -15 38 -15 62 0 23 -4 42 -10 42 -5 0 -10 23 -10 50 l0 50 85 0
85 0 0 -50 c0 -27 5 -50 10 -50 6 0 10 -9 10 -20 0 -22 31 -93 43 -98 4 -2 7
-8 7 -14 0 -11 25 -38 36 -38 4 0 17 -11 30 -25 15 -16 34 -25 54 -25 16 0 30
-4 30 -10 0 -5 25 -10 55 -10 30 0 55 5 55 10 0 6 14 10 30 10 20 0 39 9 54
25 13 14 28 25 33 25 5 0 16 11 23 25 7 14 17 25 22 25 4 0 8 9 8 21 0 11 7
27 15 35 8 9 15 26 15 40 0 13 5 24 10 24 7 0 10 191 10 553 0 417 3 556 12
565 7 7 42 12 85 12 l73 0 0 -584z m290 27 c0 -367 -4 -572 -11 -598 -6 -22
-13 -57 -16 -77 -3 -21 -9 -38 -14 -38 -5 0 -9 -11 -9 -25 0 -13 -11 -44 -25
-69 -14 -25 -25 -52 -25 -60 0 -9 -4 -16 -10 -16 -5 0 -10 -5 -10 -10 0 -6
-11 -21 -25 -34 -14 -13 -25 -28 -25 -35 0 -16 -37 -51 -55 -51 -8 0 -15 -7
-15 -15 0 -8 -7 -15 -15 -15 -8 0 -15 -4 -15 -10 0 -5 -9 -10 -20 -10 -11 0
-20 -4 -20 -10 0 -5 -5 -10 -11 -10 -6 0 -17 -7 -25 -15 -9 -8 -26 -15 -40
-15 -13 0 -24 -4 -24 -10 0 -5 -8 -10 -19 -10 -10 0 -35 -7 -54 -15 -20 -8
-61 -15 -92 -15 -30 0 -55 -4 -55 -10 0 -6 -33 -10 -80 -10 -47 0 -80 4 -80
10 0 6 -28 10 -62 10 -36 1 -74 7 -88 15 -14 8 -35 14 -47 15 -13 0 -23 5 -23
10 0 6 -11 10 -24 10 -14 0 -31 7 -40 15 -8 8 -19 15 -25 15 -6 0 -11 5 -11
10 0 6 -7 10 -16 10 -9 0 -27 11 -40 25 -13 14 -26 25 -29 25 -8 0 -35 27 -35
35 0 10 -28 35 -39 35 -6 0 -11 7 -11 15 0 8 -4 15 -10 15 -5 0 -10 7 -10 15
0 8 -4 15 -10 15 -5 0 -10 9 -10 20 0 11 -4 20 -10 20 -5 0 -12 11 -16 25 -3
14 -10 25 -15 25 -5 0 -9 11 -9 25 0 14 -4 25 -10 25 -5 0 -12 16 -16 35 -3
19 -10 35 -15 35 -5 0 -9 22 -9 49 0 27 -4 51 -8 53 -5 2 -12 24 -15 51 l-7
47 84 0 83 0 7 -90 c4 -49 12 -92 17 -95 5 -4 9 -24 9 -46 0 -21 4 -39 10 -39
5 0 12 -11 16 -25 3 -14 10 -25 15 -25 5 0 9 -9 9 -20 0 -11 5 -20 10 -20 6 0
10 -5 10 -11 0 -16 124 -136 148 -143 12 -4 22 -12 22 -17 0 -5 11 -9 25 -9
14 0 25 -4 25 -10 0 -5 15 -10 33 -10 18 0 42 -7 53 -15 27 -21 240 -21 280 0
16 8 41 15 57 15 15 0 27 5 27 10 0 6 11 10 25 10 14 0 25 4 25 10 0 5 11 12
25 16 14 3 25 10 25 15 0 5 5 9 11 9 14 0 39 25 39 39 0 6 5 11 11 11 12 0 39
25 39 37 0 5 9 15 20 23 11 8 20 24 20 36 0 12 7 24 15 28 8 3 15 15 15 26 0
11 5 20 10 20 6 0 10 11 10 25 0 14 5 25 10 25 6 0 10 11 10 25 0 13 7 50 15
82 12 47 15 150 15 600 l0 543 85 0 85 0 0 -557z m210 -8 c0 -332 -4 -565 -9
-565 -5 0 -11 -24 -14 -52 -6 -64 -26 -150 -38 -163 -5 -5 -9 -19 -9 -32 0
-13 -4 -23 -10 -23 -5 0 -10 -11 -10 -24 0 -14 -7 -31 -15 -40 -8 -8 -15 -24
-15 -35 0 -12 -4 -21 -10 -21 -5 0 -10 -7 -10 -15 0 -8 -3 -15 -8 -15 -4 0
-16 -16 -26 -35 -11 -19 -23 -35 -28 -35 -4 0 -8 -6 -8 -13 0 -7 -11 -24 -25
-39 -14 -15 -25 -30 -25 -33 0 -10 -28 -35 -39 -35 -6 0 -11 -5 -11 -11 0 -11
-25 -39 -35 -39 -4 0 -13 -6 -20 -12 -33 -30 -45 -38 -54 -38 -5 0 -11 -3 -13
-7 -4 -11 -75 -43 -93 -43 -8 0 -15 -3 -15 -8 0 -10 -68 -33 -117 -39 -24 -3
-43 -9 -43 -13 0 -7 -141 -20 -245 -21 -74 -2 -245 14 -245 21 0 5 -19 10 -42
13 -50 6 -118 29 -118 39 0 5 -7 8 -15 8 -18 0 -89 32 -93 43 -2 4 -8 7 -13 7
-9 0 -21 8 -54 38 -7 6 -16 12 -20 12 -10 0 -35 28 -35 39 0 6 -5 11 -10 11
-11 0 -60 45 -60 55 0 3 -11 16 -25 29 -14 13 -25 29 -25 35 0 7 -11 22 -25
35 -14 13 -25 33 -25 45 0 11 -4 21 -10 21 -5 0 -10 8 -10 18 0 9 -7 26 -15
36 -8 11 -15 30 -15 43 0 13 -4 23 -10 23 -5 0 -10 11 -10 24 0 13 -7 37 -15
52 -8 16 -15 46 -15 67 0 20 -4 37 -10 37 -6 0 -10 42 -10 105 l0 105 35 0
c19 0 35 -4 35 -10 0 -5 7 -10 15 -10 10 0 15 -11 15 -35 0 -19 5 -35 10 -35
6 0 10 -18 10 -40 0 -22 4 -40 9 -40 6 0 13 -20 17 -45 3 -25 10 -45 15 -45 5
0 9 -13 9 -30 0 -16 5 -30 10 -30 6 0 10 -8 10 -18 0 -10 7 -27 15 -38 8 -10
15 -27 15 -36 0 -10 5 -18 10 -18 6 0 10 -8 10 -18 0 -9 11 -29 25 -44 14 -15
25 -30 25 -33 0 -6 11 -20 38 -50 6 -7 12 -16 12 -20 0 -8 27 -35 35 -35 10 0
35 -28 35 -39 0 -6 8 -11 19 -11 10 0 30 -11 45 -25 15 -14 34 -25 42 -25 7 0
14 -4 14 -10 0 -5 9 -10 20 -10 11 0 23 -7 26 -15 4 -9 19 -15 40 -15 19 0 34
-4 34 -10 0 -5 14 -10 30 -10 17 0 47 -7 67 -15 51 -21 355 -21 406 0 20 8 48
15 62 15 14 0 25 5 25 10 0 6 12 10 26 10 14 0 32 7 40 15 9 8 26 15 40 15 13
0 24 5 24 10 0 6 9 10 20 10 11 0 20 5 20 10 0 6 6 10 14 10 8 0 16 7 20 15 3
8 15 15 26 15 11 0 20 5 20 11 0 11 25 39 35 39 8 0 35 27 35 35 0 10 28 35
39 35 6 0 11 10 11 21 0 12 8 29 19 38 10 9 21 26 25 39 4 12 12 22 17 22 5 0
9 11 9 25 0 14 4 25 9 25 5 0 11 12 14 27 9 48 31 118 39 123 13 10 19 190 24
718 l5 532 49 0 50 0 0 -565z"/>
</g>
</svg>
