<?xml version="1.0" standalone="no"?>
<!DOCTYPE svg PUBLIC "-//W3C//DTD SVG 20010904//EN"
 "http://www.w3.org/TR/2001/REC-SVG-20010904/DTD/svg10.dtd">
<svg version="1.0" xmlns="http://www.w3.org/2000/svg"
 width="512.000000pt" height="512.000000pt" viewBox="0 0 512.000000 512.000000"
 preserveAspectRatio="xMidYMid meet">
<metadata>
Created by potrace 1.14, written by Peter Selinger 2001-2017
</metadata>
<g transform="translate(0.000000,512.000000) scale(0.100000,-0.100000)"
fill="#000000" stroke="none">
<path d="M2325 5109 c-679 -65 -1307 -399 -1742 -926 -373 -453 -583 -1039
-583 -1623 1 -1183 815 -2215 1965 -2490 221 -53 327 -64 595 -64 269 0 377
11 595 64 1019 245 1782 1078 1940 2120 23 151 30 429 16 590 -38 428 -187
852 -421 1201 -196 290 -477 563 -776 750 -126 80 -372 199 -503 244 -348 119
-736 167 -1086 134z m1445 -1271 c33 -17 51 -35 68 -68 l22 -45 -2 -1220 c-3
-1207 -3 -1220 -23 -1255 -12 -19 -36 -43 -55 -55 -35 -20 -48 -20 -1255 -23
l-1220 -2 -45 22 c-33 17 -51 35 -67 68 l-23 44 0 1206 c0 763 4 1218 10 1241
12 41 55 86 96 99 16 4 574 9 1239 9 l1211 1 44 -22z"/>
<path d="M2355 3323 c-387 -82 -659 -461 -608 -846 44 -324 262 -575 572 -659
57 -16 106 -21 196 -21 147 0 240 23 362 87 l83 45 156 -90 c86 -49 160 -89
166 -89 6 0 7 33 4 88 -10 145 -11 581 -2 682 29 322 -170 638 -481 765 -132
53 -307 68 -448 38z m280 -309 c158 -40 286 -173 330 -339 81 -313 -202 -620
-521 -566 -263 44 -437 296 -383 553 34 163 172 310 329 352 73 19 172 20 245
0z"/>
</g>
</svg>
